<svg id="Layer_1_copy" data-name="Layer 1 copy" xmlns="http://www.w3.org/2000/svg" xmlns:xlink="http://www.w3.org/1999/xlink" viewBox="0 0 500 500"><defs><style>.cls-1{fill:#fc4e4e;}.cls-2{fill:url(#linear-gradient);}.cls-3{clip-path:url(#clip-path);}.cls-4{fill:url(#linear-gradient-2);}.cls-5{fill:#fff;}</style><linearGradient id="linear-gradient" x1="277.18" y1="222.99" x2="199.02" y2="-20.58" gradientUnits="userSpaceOnUse"><stop offset="0.01" stop-color="#219600"/><stop offset="0.24" stop-color="#46c305"/><stop offset="0.43" stop-color="#5fe308"/><stop offset="0.53" stop-color="#69ef09"/><stop offset="1" stop-color="#f0ffcf"/></linearGradient><clipPath id="clip-path"><path class="cls-1" d="M424.69,84.4l-1.41.15c-7.88.81-19,1.21-33.2,1.72l-6.33.23C395.11,94,406.91,102.17,419,111c30,21.92,39.76,34.3,36,45.68-2.45,7.49-9.86,11.29-22,11.29h0c-40.43,0-152.26-39-185.1-51.29C215.09,129,103.26,168,62.83,168c-12.18,0-19.59-3.8-22-11.29-3.71-11.39,6.05-23.77,36-45.68,12-8.72,23.57-16.81,34.76-24.18-8.17,0-15.79.14-22.55.26-5.8.1-10.81.19-15.25.19-1.61,0-3.08,0-4.43,0C26.4,113.13,0,155.52,0,222.5a249.88,249.88,0,0,0,7,58.8q1.32,5.46,2.87,10.82C40,396,135.87,472,249.5,472,361.68,472,456.56,398,488,296.08q1.64-5.26,3-10.63a249.78,249.78,0,0,0,8-62.95C499,153,470.56,110,424.69,84.4Z"/></clipPath><linearGradient id="linear-gradient-2" x1="385.53" y1="484.74" x2="100.95" y2="-8.15" gradientUnits="userSpaceOnUse"><stop offset="0.09" stop-color="#de007a"/><stop offset="0.17" stop-color="#e8195c"/><stop offset="0.27" stop-color="#f2303f"/><stop offset="0.36" stop-color="#f9412a"/><stop offset="0.45" stop-color="#fe4c1d"/><stop offset="0.54" stop-color="#ff4f19"/><stop offset="0.58" stop-color="#ff5d25"/><stop offset="0.72" stop-color="#ff9452"/><stop offset="0.84" stop-color="#ffbb73"/><stop offset="0.94" stop-color="#ffd388"/><stop offset="1" stop-color="#ffdc8f"/></linearGradient></defs><path class="cls-2" d="M433,153c-36.48,0-148.74-38.41-183.31-51.65l-1.79-.68-1.79.68C211.57,114.59,99.3,153,62.83,153c-5.09,0-7.07-.76-7.71-1.11.3-1.64,3.32-8.84,30.56-28.74,22.06-16.12,42.94-30,62.06-41.17l14.33-8.4-16.59-.91c-10.12-.55-20.86-.82-32.81-.82-8.71,0-16.77.14-23.89.26-5.73.1-10.68.19-15,.19-2.68,0-4.85,0-6.61-.11,5-2.71,13.62-6.88,28.32-13.27,21-9.16,46.74-14.41,70.48-14.41,17.09,0,31.35,2.71,39.13,7.44l7.6,4.61V18.42c0-5.76,3-10.07,5.68-10.07h63c2.68,0,5.68,4.31,5.68,10.07V58.56l8.24-7c5.62-4.79,20.07-10.38,42.3-10.38,18.16,0,46.69,3.78,79.45,21.8a104,104,0,0,1,9.9,6c-6.91,1.22-21.83,1.76-37.45,2.32-11.24.4-24,.86-38.73,1.63l-16.63.87,14.36,8.44c19,11.16,39.75,24.93,61.65,40.93,27.24,19.9,30.26,27.09,30.57,28.74-.64.35-2.62,1.11-7.71,1.11Z"/><path class="cls-1" d="M424.69,84.4l-1.41.15c-7.88.81-19,1.21-33.2,1.72l-6.33.23C395.11,94,406.91,102.17,419,111c30,21.92,39.76,34.3,36,45.68-2.45,7.49-9.86,11.29-22,11.29h0c-40.43,0-152.26-39-185.1-51.29C215.09,129,103.26,168,62.83,168c-12.18,0-19.59-3.8-22-11.29-3.71-11.39,6.05-23.77,36-45.68,12-8.72,23.57-16.81,34.76-24.18-8.17,0-15.79.14-22.55.26-5.8.1-10.81.19-15.25.19-1.61,0-3.08,0-4.43,0C26.4,113.13,0,155.52,0,222.5a249.88,249.88,0,0,0,7,58.8q1.32,5.46,2.87,10.82C40,396,135.87,472,249.5,472,361.68,472,456.56,398,488,296.08q1.64-5.26,3-10.63a249.78,249.78,0,0,0,8-62.95C499,153,470.56,110,424.69,84.4Z"/><g class="cls-3"><rect class="cls-4" width="500" height="500"/><path class="cls-5" d="M250,338.82c-106.59,0-184.32-12.61-231-37.49-37.77-20.12-41.67-41.86-42-44.27l21.23-2.82a3.12,3.12,0,0,0-.07-.42c.14.64,16.56,63.58,251.85,63.58,235.13,0,250.63-62.8,250.76-63.43a2.26,2.26,0,0,0-.06.42L522,256.91c-.29,2.42-3.88,24.23-41.45,44.4C434.2,326.2,356.65,338.82,250,338.82Z"/></g><polygon class="cls-5" points="250 307.22 310.81 201.89 189.19 201.89 250 307.22"/></svg>