<svg id="Layer_1_copy" data-name="Layer 1 copy" xmlns="http://www.w3.org/2000/svg" viewBox="0 0 435.84 481.72"><defs><style>.cls-1{fill:#010101;}</style></defs><g id="Calendar_Timer" data-name="Calendar / Timer"><g id="Vector"><path class="cls-1" d="M238.61,490.69a206.44,206.44,0,1,1,146-60.46A205.08,205.08,0,0,1,238.61,490.69Zm0-367C150.07,123.67,78,195.7,78,284.24s72,160.58,160.57,160.58,160.57-72,160.57-160.58S327.15,123.67,238.61,123.67Zm0,183.51a22.94,22.94,0,0,1-22.94-22.94V192.49a22.94,22.94,0,1,1,45.88,0v91.75A22.94,22.94,0,0,1,238.61,307.18ZM445.06,146.61a22.87,22.87,0,0,1-16.22-6.72L383,94A22.94,22.94,0,1,1,415.4,61.57l45.88,45.88a22.94,22.94,0,0,1-16.22,39.16ZM284.49,54.85H192.73a22.94,22.94,0,1,1,0-45.88h91.76a22.94,22.94,0,0,1,0,45.88Z" transform="translate(-32.16 -8.97)"/></g></g></svg>